<?xml version="1.0" encoding="utf-8"?>
<!-- Generator: Adobe Illustrator 19.0.0, SVG Export Plug-In . SVG Version: 6.00 Build 0)  -->
<svg version="1.1" id="Layer_1" xmlns="http://www.w3.org/2000/svg" xmlns:xlink="http://www.w3.org/1999/xlink" x="0px" y="0px"
	 viewBox="6 -6 512 512" style="enable-background:new 6 -6 512 512;" xml:space="preserve">
<style type="text/css">
	.st0{fill:#FFFFFF;}
</style>
<path class="st0" d="M74.3,76.8C50.4,76.8,31,96.2,31,120.1c0,13.6,6.4,26.4,17.3,34.6L244.7,302c10.3,7.7,24.4,7.7,34.7,0
	l196.3-147.3c10.9-8.2,17.3-21,17.3-34.6c0-23.9-19.4-43.3-43.3-43.3H74.3z M31,177.8v187.7c0,31.9,25.9,57.8,57.8,57.8h346.5
	c31.9,0,57.8-25.9,57.8-57.8V177.8L296.6,325.1c-20.6,15.4-48.7,15.4-69.3,0L31,177.8z"/>
</svg>
