<?xml version="1.0" encoding="utf-8"?>
<!-- Generator: Adobe Illustrator 19.0.0, SVG Export Plug-In . SVG Version: 6.00 Build 0)  -->
<svg version="1.1" id="Layer_1" xmlns="http://www.w3.org/2000/svg" xmlns:xlink="http://www.w3.org/1999/xlink" x="0px" y="0px"
	 viewBox="6 -6 512 512" style="enable-background:new 6 -6 512 512;" xml:space="preserve">
<style type="text/css">
	.st0{fill:#FFFFFF;}
</style>
<path class="st0" d="M77.9,28.7c-21.7,12.9-64.5,62-64.9,74.9v21.3c0,27.1,25.3,50.8,48.3,50.8c27.6,0,50.5-22.9,50.5-50
	c0,27.1,22.2,50,49.8,50s49-22.9,49-50c0,27.1,23.6,50,51.2,50h0.5c27.6,0,51.2-22.9,51.2-50c0,27.1,21.5,50,49,50
	s49.8-22.9,49.8-50c0,27.1,23,50,50.5,50c23,0,48.3-23.8,48.3-50.8v-21.3c-0.4-12.9-43.2-62.1-64.9-75
	c-67.6-2.3-114.4-2.7-184.2-2.7S97.1,27,77.9,28.7z M210.2,163.1c-22,38.4-77.9,38.7-99.9,0.3c-13.2,23.1-43.2,32.1-56,27.7
	C50.4,231.3,40.6,428.2,72,460.3c80,18.7,302.1,18.1,379.8,0c31.7-32.3,21.3-232,17.8-269.2c-12.9,4.4-42.9-4.6-56-27.7
	c-22,38.5-77.9,38.1-99.9-0.2c-7.1,12.5-23.1,28.9-51.8,28.9c-21.3,0.7-41.2-10.4-51.8-28.9L210.2,163.1z M168.6,216.9
	c16.5,0,31.1,0,49.2,19.8c29.3-3,58.9-3,88.2,0c18.2-19.8,32.9-19.8,49.3-19.8c52.3,0,65.2,77.5,83.9,144.5
	c17.3,62.2-5.5,63.7-34,63.7c-42.2-1.6-65.5-32.2-65.5-62.8c-39.3,6.4-101.9,8.8-155.6,0c0,30.6-23.3,61.2-65.5,62.8
	c-28.4-0.1-51.2-1.6-33.9-63.7C103.3,294.4,116.2,216.9,168.6,216.9L168.6,216.9z M262,264.7c0,0-44.4,40.8-52.4,55.2l29-1.2V344
	c0,1.6,21.3,0.2,23.3,0.2c11.7,0.5,23.3,1,23.3-0.2v-25.3l29,1.2c-8-14.5-52.4-55.2-52.4-55.2H262z"/>
</svg>
