<?xml version="1.0" encoding="utf-8"?>
<!-- Generator: Adobe Illustrator 19.0.0, SVG Export Plug-In . SVG Version: 6.00 Build 0)  -->
<svg version="1.1" id="Layer_1" xmlns="http://www.w3.org/2000/svg" xmlns:xlink="http://www.w3.org/1999/xlink" x="0px" y="0px"
	 viewBox="-57 -6 512 512" style="enable-background:new -57 -6 512 512;" xml:space="preserve">
<style type="text/css">
	.st0{fill:#FFFFFF;}
</style>
<path class="st0" d="M391,26H6.9C-10.7,26-25,40.5-25,58.3v383.4c0,17.8,14.3,32.3,31.9,32.3H391c17.6,0,32-14.5,32-32.3V58.3
	C423,40.5,408.6,26,391,26z M110.4,410H44V196.2h66.5V410H110.4z M77.2,167c-21.3,0-38.5-17.3-38.5-38.5S55.9,90,77.2,90
	c21.2,0,38.5,17.3,38.5,38.5C115.7,149.8,98.5,167,77.2,167z M359.3,410h-66.4V306c0-24.8-0.5-56.7-34.5-56.7
	c-34.6,0-39.9,27-39.9,54.9V410h-66.4V196.2h63.7v29.2h0.9c8.9-16.8,30.6-34.5,62.9-34.5c67.2,0,79.7,44.3,79.7,101.9V410z"/>
</svg>
