<?xml version="1.0" encoding="utf-8"?>
<!-- Generator: Adobe Illustrator 19.0.0, SVG Export Plug-In . SVG Version: 6.00 Build 0)  -->
<svg version="1.1" id="Layer_1" xmlns="http://www.w3.org/2000/svg" xmlns:xlink="http://www.w3.org/1999/xlink" x="0px" y="0px"
	 viewBox="-289 291 500 500" style="enable-background:new -289 291 500 500;" xml:space="preserve">
<style type="text/css">
	.st0{fill:#F1F2F2;}
</style>
<g>
	<g>
		<path class="st0" d="M-35.2,482.9c-2.1,2.1-5.5,2.1-7.7,0l-118.6-118.6c-2.1-2.1-3.8-1.4-3.8,1.6v205.6c0,3,1.7,7.1,3.8,9.2
			l28.4,28.4c2.1,2.1,3.8,1.4,3.8-1.6V456.1c0-3,1.7-3.7,3.8-1.6l82.5,82.5c2.1,2.1,5.5,2.1,7.7,0l82.5-82.5
			c2.1-2.1,3.8-1.4,3.8,1.6v151.5c0,3,1.7,3.7,3.8,1.6l28.4-28.4c2.1-2.1,3.8-6.3,3.8-9.2V365.9c0-3-1.7-3.7-3.8-1.6L-35.2,482.9z"
			/>
	</g>
	<g>
		<path class="st0" d="M0.9,537c-2.1,2.1-3.8,6.3-3.8,9.2v79.4c0,3-1.7,7.1-3.8,9.2l-28.4,28.4c-2.1,2.1-5.5,2.1-7.7,0l-28.4-28.4
			c-2.1-2.1-3.8-6.3-3.8-9.2v-79.4c0-3-1.7-7.1-3.8-9.2l-28.4-28.4c-2.1-2.1-3.8-1.4-3.8,1.6v133.5c0,3,1.7,7.1,3.8,9.2l64.5,64.5
			c2.1,2.1,5.5,2.1,7.7,0l64.5-64.5c2.1-2.1,3.8-6.3,3.8-9.2V510.2c0-3-1.7-3.7-3.8-1.6L0.9,537z"/>
	</g>
	<g>
		<path class="st0" d="M-24.8,616.8c2.1-2.1,3.8-6.3,3.8-9.2v-43.3c0-3-1.7-3.7-3.8-1.6l-10.4,10.4c-2.1,2.1-5.5,2.1-7.7,0
			l-10.4-10.4c-2.1-2.1-3.8-1.4-3.8,1.6v43.3c0,3,1.7,7.1,3.8,9.2l10.4,10.4c2.1,2.1,5.5,2.1,7.7,0L-24.8,616.8z"/>
	</g>
</g>
</svg>
